# xmcd CD database file
#
# Track frame offsets:
#	150
#	25190
#	50570
#	81790
#	111182
#	138372
#	158820
#	190155
#	214601
#	236997
#	263200
#	282198
#
# Disc length: 4000 seconds
#
# Revision: 0
# Processed by: cddbd v1.5.2PL0 Copyright (c) Steve Scherf et al.
# Submitted via: CDex 1.70beta2
#
DISCID=a80f9e0c
DTITLE=Birdland Stars - Modern Jazz Modern Mainstream CD 086
DYEAR=2008
DGENRE=Jazz
TTITLE0=Two Pairs Of Aces
TTITLE1=Roulette
TTITLE2=A Bit Of Blues
TTITLE3=Ah Funky New Baby
TTITLE4=Last Lap
TTITLE5=Phil'er Up
TTITLE6=Conte's Condolences
TTITLE7=For Kicks Only
TTITLE8=Hip Boots
TTITLE9=Minorin' the Blues
TTITLE10=Birdland Fantasy
TTITLE11=Playboy
EXTD=YEAR: 2008
EXTT0=
EXTT1=
EXTT2=
EXTT3=
EXTT4=
EXTT5=
EXTT6=
EXTT7=
EXTT8=
EXTT9=
EXTT10=
EXTT11=
PLAYORDER=
